<svg width="155" height="24" viewBox="0 0 155 24" fill="none" xmlns="http://www.w3.org/2000/svg">
<path d="M32.568 5.8C32.184 10.744 31.864 15.816 29.832 15.816C29.48 15.816 29.288 15.784 29.064 15.704V16.984C29.416 17.112 29.752 17.16 30.056 17.16C32.984 17.144 33.4 12.184 33.848 7.08H38.12V17H39.464V5.8H32.568ZM43.2095 17L47.9135 11.384V17H49.1935V9.32H48.1055L43.4015 14.936V9.32H42.1215V17H43.2095ZM57.559 17V9.32H56.279V13.208C55.687 13.448 55.143 13.544 54.375 13.544C53.095 13.544 52.311 13.176 52.311 11.88V9.32H51.031V11.976C51.031 13.864 52.231 14.728 53.991 14.728C54.951 14.728 55.575 14.6 56.279 14.328V17H57.559ZM61.214 17V13.752H65.662V17H66.942V9.32H65.662V12.568H61.214V9.32H59.934V17H61.214ZM72.957 17C74.829 17 75.933 15.928 75.933 14.504C75.933 13.08 74.829 12.008 72.957 12.008H70.589V9.32H69.309V17H72.957ZM70.589 13.16H72.797C73.917 13.16 74.637 13.592 74.637 14.504C74.637 15.416 73.917 15.848 72.797 15.848H70.589V13.16ZM78.701 17V9.32H77.421V17H78.701ZM86.8506 7.464V6.312C86.0506 6.84 85.3946 7.016 84.6106 7.016C83.8266 7.016 83.1706 6.84 82.3706 6.312V7.464C83.0906 7.976 83.8426 8.136 84.6106 8.136C85.3786 8.136 86.1306 7.976 86.8506 7.464ZM82.1626 17L86.8666 11.384V17H88.1466V9.32H87.0586L82.3546 14.936V9.32H81.0746V17H82.1626ZM95.7765 17V13.704H97.2805L100.097 17H101.601L98.3365 13.144L101.249 9.32H99.7605L97.3285 12.52H95.7765V9.32H94.4965V17H95.7765ZM109.049 15.4V12.392C109.049 10.248 107.753 9.128 105.705 9.128C104.441 9.128 103.385 9.432 102.777 9.64V10.888C103.449 10.6 104.393 10.312 105.577 10.312C106.985 10.312 107.769 11.08 107.769 12.232V12.504C107.129 12.36 106.313 12.264 105.641 12.264C103.993 12.264 102.169 12.872 102.169 14.856C102.169 16.472 103.513 17.192 104.873 17.192C106.121 17.192 107.097 16.808 107.865 16.168C108.089 16.84 108.649 17.096 109.273 17.096C109.593 17.096 109.929 17.032 110.233 16.92V15.88C110.041 15.944 109.833 15.992 109.641 15.992C109.305 15.992 109.049 15.864 109.049 15.4ZM103.481 14.792C103.481 13.672 104.697 13.336 105.817 13.336C106.441 13.336 107.225 13.448 107.769 13.56V14.968C107.097 15.688 106.121 16.088 105.145 16.088C104.297 16.088 103.481 15.688 103.481 14.792ZM119.11 13.384C119.11 11.096 117.334 9.64 115.334 9.64C114.134 9.64 113.046 10.232 112.502 11.08C112.822 10.104 113.254 9.064 114.326 8.424C116.086 7.4 117.318 7.736 118.422 6.952V5.608C117.302 6.696 115.782 6.12 113.574 7.48C112.198 8.344 111.206 10.12 111.206 12.696C111.206 15.608 112.87 17.192 115.19 17.192C117.51 17.192 119.11 15.784 119.11 13.384ZM112.486 13.416C112.486 12.12 113.558 10.856 115.158 10.856C116.838 10.856 117.83 11.96 117.83 13.416C117.83 14.872 116.838 15.976 115.158 15.976C113.542 15.976 112.486 14.872 112.486 13.416ZM122.053 17L126.757 11.384V17H128.037V9.32H126.949L122.245 14.936V9.32H120.965V17H122.053ZM131.683 17V13.752H136.131V17H137.411V9.32H136.131V12.568H131.683V9.32H130.403V17H131.683ZM139.25 13.16C139.25 15.896 141.234 17.192 143.506 17.192C144.514 17.192 145.522 17 146.226 16.632V15.384C145.57 15.752 144.642 16.008 143.698 16.008C142.146 16.008 140.69 15.336 140.53 13.72H146.642C147.122 11.544 146.034 9.128 143.074 9.128C141.25 9.128 139.25 10.472 139.25 13.16ZM145.506 12.6H140.53C140.626 11.096 141.842 10.312 143.154 10.312C145.106 10.312 145.618 11.784 145.506 12.6ZM151.556 17V10.504H154.372V9.32H147.444V10.504H150.276V17H151.556Z" fill="#CC9933"/>
<path d="M11.59 7.41L15.17 11H1V13H15.17L11.58 16.59L13 18L19 12L13 6L11.59 7.41ZM20 6V18H22V6H20Z" fill="#CC9933"/>
</svg>
